#!OML:ASF F:\VICON\USERDATA\INSTALL\rory3\rory3.ASF
:FULLY-SPECIFIED
:DEGREES
1108
root 0.459289 17.489 -1.47167 5.28319 171.496 6.30714
lowerback 21.3255 2.2194 4.79718
upperback 2.74366 5.37464 5.27199
thorax -9.03106 2.83147 1.45582
lowerneck -12.7873 -1.81339 -3.85449
upperneck 19.7358 0.19091 -4.87112
head 8.27261 -0.380495 -0.920668
rclavicle -2.34566e-014 -1.74931e-014
rhumerus -7.90668 -24.8932 -75.5824
rradius 18.963
rwrist 19.1331
rhand -7.25279 3.51209
rfingers 7.12502
rthumb 18.6277 -25.616
lclavicle -2.34566e-014 -1.74931e-014
lhumerus -41.1218 3.28372 87.3809
lradius 55.4403
lwrist 4.71524
lhand -9.23183 48.2709
lfingers 7.12502
lthumb 16.7233 77.5706
rfemur 18.7718 4.97561 29.9626
rtibia 6.65698
rfoot -16.7078 -6.46262
rtoes -5.05963
lfemur -38.8798 -8.77759 -9.15919
ltibia 29.957
lfoot -7.54313 9.4245
ltoes -5.09486
1109
root 0.433316 17.4901 -1.65418 5.38175 171.768 6.21032
lowerback 21.0757 2.27236 4.88378
upperback 2.83136 5.44549 5.27329
thorax -8.79137 2.87313 1.40239
lowerneck -12.9364 -1.95841 -4.10129
upperneck 19.7993 0.0202385 -4.70279
head 8.32179 -0.467462 -0.844198
rclavicle -6.36111e-014 -6.99722e-014
rhumerus -8.59639 -29.6128 -74.4581
rradius 17.4463
rwrist 19.5801
rhand -8.00976 4.41972
rfingers 7.12502
rthumb 17.8994 -24.7766
lclavicle -6.36111e-014 -6.99722e-014
lhumerus -41.1102 3.35645 87.4354
lradius 55.6268
lwrist 4.56596
lhand -9.0661 48.2415
lfingers 7.12502
lthumb 16.8828 77.5277
rfemur 18.6736 4.88634 29.7708
rtibia 7.76974
rfoot -15.9507 -6.75005
rtoes -5.86188
lfemur -38.7883 -8.59426 -9.8377
ltibia 30.7456
lfoot -6.57395 9.42024
ltoes -6.60764
1110
root 0.397554 17.4992 -1.8302 5.53382 172.38 5.6793
lowerback 20.9979 2.24335 4.79881
upperback 2.76857 5.34381 5.10167
thorax -8.80678 2.81314 1.29499
lowerneck -12.8854 -1.17629 -4.52993
upperneck 19.861 -0.549305 -4.23497
head 8.31954 -1.33586 -0.767952
rclavicle -3.22031e-014 -4.45278e-014
rhumerus -9.86781 -32.6742 -73.2133
rradius 17.01
rwrist 18.4348
rhand -8.59046 4.30701
rfingers 7.12502
rthumb 17.3406 -24.9394
lclavicle -3.22031e-014 -4.45278e-014
lhumerus -41.307 3.35741 87.409
lradius 55.8604
lwrist 4.53592
lhand -9.50673 47.9723
lfingers 7.12502
lthumb 16.4586 77.2942
rfemur 18.2909 4.46574 29.0619
rtibia 9.17294
rfoot -15.1563 -6.97268
rtoes -7.68318
lfemur -38.8716 -8.43903 -11.108
ltibia 31.3941
lfoot -5.80256 9.3448
ltoes -8.09555
1111
root 0.38361 17.5188 -2.01613 5.33542 172.61 5.43685
lowerback 21.365 2.35386 4.58633
upperback 2.73431 5.46277 5.04332
thorax -9.05579 2.86676 1.29777
lowerneck -12.7356 -1.3262 -4.64191
upperneck 19.8817 -0.778698 -4.08994
head 8.30023 -1.43747 -0.724492
rclavicle -4.92986e-014 -7.63333e-014
rhumerus -11.5725 -34.8415 -71.8568
rradius 16.8416
rwrist 16.7799
rhand -9.78277 3.63362
rfingers 7.12502
rthumb 16.1928 -25.7101
lclavicle -4.92986e-014 -7.63333e-014
lhumerus -41.6657 3.36356 87.2601
lradius 55.8907
lwrist 4.59653
lhand -9.8761 47.6538
lfingers 7.12502
lthumb 16.103 77.0048
rfemur 18.3774 4.34913 28.7745
rtibia 10.3811
rfoot -14.5814 -6.92409
rtoes -7.06255
lfemur -38.5116 -8.11754 -11.913
ltibia 32.0014
lfoot -5.46409 9.4359
ltoes -8.93893
1112
root 0.360021 17.5353 -2.19936 5.27202 172.973 5.08464
lowerback 21.4022 2.40095 4.39485
upperback 2.71427 5.46127 4.94546
thorax -9.1039 2.86406 1.29699
lowerneck -12.4632 -1.3488 -4.45321
upperneck 19.9113 -0.86227 -4.19498
head 8.25823 -1.477 -0.797409
rclavicle 4.65156e-014 1.22451e-013
rhumerus -13.5037 -35.2442 -70.6528
rradius 17.5016
rwrist 13.6689
rhand -10.9766 2.89461
rfingers 7.12502
rthumb 15.043 -26.5389
lclavicle 4.65156e-014 1.22451e-013
lhumerus -42.0521 3.48023 87.0736
lradius 55.9522
lwrist 4.69558
lhand -9.80242 47.6284
lfingers 7.12502
lthumb 16.1739 76.9736
rfemur 18.0397 4.39755 28.3874
rtibia 12.1156
rfoot -14.2267 -6.85033
rtoes -6.16319
lfemur -38.2675 -8.07011 -12.7119
ltibia 32.3985
lfoot -5.70357 9.66356
ltoes -8.42698
1113
root 0.335407 17.5523 -2.39187 5.24505 173.605 4.63201
lowerback 21.8112 2.40673 4.28803
upperback 2.55032 5.45296 4.81726
thorax -9.50313 2.8408 1.19552
lowerneck -12.7453 -1.53943 -4.71338
upperneck 20.26 -1.10437 -3.92295
head 8.43121 -1.5973 -0.698853
rclavicle -2.38542e-014 -5.40694e-014
rhumerus -15.7825 -33.1298 -69.7435
rradius 19.5822
rwrist 8.09358
rhand -11.8337 1.55355
rfingers 7.12502
rthumb 14.2173 -27.9399
lclavicle -2.38542e-014 -5.40694e-014
lhumerus -42.4575 3.47151 87.0029
lradius 56.0596
lwrist 4.70134
lhand -9.91131 47.5807
lfingers 7.12502
lthumb 16.069 76.9344
rfemur 17.5402 3.96869 27.7995
rtibia 14.0687
rfoot -13.2642 -6.33349
rtoes -7.52846
lfemur -37.9312 -8.10857 -13.6724
ltibia 32.6299
lfoot -6.05761 9.25889
ltoes -8.43258
